<svg width="9" height="14" viewBox="0 0 9 14" fill="none" xmlns="http://www.w3.org/2000/svg">
<path d="M9.00012 5.87629V6.76844C9.00012 6.86233 8.9639 6.95238 8.89943 7.01877C8.83497 7.08516 8.74753 7.12246 8.65637 7.12246H7.96887C7.92372 7.12246 7.87902 7.1133 7.83732 7.09551C7.79561 7.07772 7.75772 7.05164 7.7258 7.01877C7.69388 6.9859 7.66856 6.94687 7.65128 6.90392C7.63401 6.86096 7.62512 6.81493 7.62512 6.76844V6.57726C7.61696 6.2285 7.51663 5.88862 7.33493 5.5942C7.15322 5.29977 6.89702 5.06193 6.59387 4.90626C6.47012 4.83546 6.36012 4.75049 6.25012 4.67261V11.0451C6.19387 11.7427 5.87448 12.3898 5.36041 12.8478C4.84635 13.3057 4.17853 13.5381 3.50012 13.4949C2.8173 13.5378 2.14562 13.3016 1.6308 12.8377C1.11597 12.3737 0.799529 11.7194 0.750122 11.0167C0.799529 10.314 1.11597 9.65976 1.6308 9.19582C2.14562 8.73188 2.8173 8.49572 3.50012 8.53856C3.979 8.53753 4.45093 8.65661 4.87512 8.88551V1.10403C4.87512 1.05754 4.88401 1.01151 4.90129 0.968553C4.91856 0.925601 4.94388 0.886573 4.9758 0.853699C5.00772 0.820825 5.04562 0.794748 5.08732 0.776956C5.12903 0.759165 5.17373 0.750008 5.21887 0.750008H5.90637C5.95151 0.750008 5.99621 0.759165 6.03792 0.776956C6.07962 0.794748 6.11752 0.820825 6.14944 0.853699C6.18136 0.886573 6.20668 0.925601 6.22395 0.968553C6.24123 1.01151 6.25012 1.05754 6.25012 1.10403V1.2244C6.24307 1.57591 6.33134 1.92248 6.50501 2.22517C6.67868 2.52786 6.93087 2.77468 7.23324 2.93788C7.76476 3.20892 8.21198 3.62782 8.52425 4.14714C8.83652 4.66646 9.00136 5.26546 9.00012 5.87629V5.87629Z" fill="#FAFAFA"/>
</svg>
