<svg width="22" height="18" viewBox="0 0 22 18" fill="none" xmlns="http://www.w3.org/2000/svg">
<path d="M6.53505 1.11994e-08H21.0001C21.2653 1.11994e-08 21.5196 0.105357 21.7072 0.292893C21.8947 0.48043 22.0001 0.734784 22.0001 1V17C22.0001 17.2652 21.8947 17.5196 21.7072 17.7071C21.5196 17.8946 21.2653 18 21.0001 18H6.53505C6.37046 18 6.20841 17.9594 6.06327 17.8818C5.91813 17.8042 5.7944 17.6919 5.70305 17.555L0.370054 9.555C0.260415 9.39067 0.201904 9.19755 0.201904 9C0.201904 8.80245 0.260415 8.60933 0.370054 8.445L5.70305 0.445C5.7944 0.308084 5.91813 0.195832 6.06327 0.118205C6.20841 0.0405779 6.37046 -2.46193e-05 6.53505 1.11994e-08ZM13.0001 7.586L10.1721 4.757L8.75705 6.172L11.5861 9L8.75705 11.828L10.1721 13.243L13.0001 10.414L15.8281 13.243L17.2431 11.828L14.4141 9L17.2431 6.172L15.8281 4.757L13.0001 7.586Z" fill="black"/>
</svg>
