<svg width="14" height="12" viewBox="0 0 14 12" fill="none" xmlns="http://www.w3.org/2000/svg">
<path d="M9.435 6.908C9.704 6.908 9.927 7.041 10.121 7.304C10.313 7.569 10.415 7.892 10.415 8.279C10.415 8.664 10.313 8.99 10.121 9.252C9.928 9.517 9.704 9.648 9.435 9.648C9.157 9.648 8.913 9.517 8.72 9.252C8.528 8.99 8.426 8.664 8.426 8.279C8.426 7.892 8.528 7.569 8.72 7.304C8.912 7.04 9.156 6.908 9.435 6.908ZM12.875 3.349C13.621 4.16 14 5.144 14 6.302C14 7.05 13.914 7.725 13.741 8.325C13.566 8.922 13.347 9.409 13.087 9.784C12.823 10.16 12.499 10.489 12.113 10.773C11.727 11.059 11.372 11.265 11.048 11.396C10.723 11.528 10.353 11.629 9.937 11.702C9.52 11.773 9.211 11.813 8.994 11.825C8.781 11.834 8.556 11.839 8.309 11.839C8.254 11.839 8.066 11.843 7.762 11.854C7.461 11.867 7.202 11.87 7 11.87C6.798 11.87 6.539 11.867 6.238 11.854C5.934 11.843 5.746 11.839 5.691 11.839C5.445 11.839 5.219 11.834 5.006 11.825C4.788 11.813 4.48 11.773 4.063 11.702C3.64 11.63 3.277 11.528 2.952 11.396C2.628 11.265 2.272 11.059 1.888 10.773C1.501 10.489 1.177 10.16 0.913 9.784C0.652 9.409 0.434 8.922 0.259 8.325C0.0859998 7.725 0 7.05 0 6.302C0 5.144 0.379 4.159 1.125 3.349C1.043 3.308 1.04 2.902 1.117 2.132C1.18 1.361 1.344 0.65 1.612 0C2.546 0.099 3.702 0.629 5.083 1.581C5.549 1.462 6.184 1.398 7 1.398C7.852 1.398 8.491 1.462 8.918 1.582C9.547 1.157 10.148 0.811 10.723 0.548C11.307 0.287 11.728 0.132 11.992 0.0910001L12.388 0.000999928C12.658 0.65 12.822 1.361 12.884 2.133C12.96 2.902 12.957 3.308 12.875 3.349ZM7.03 11.169C8.718 11.169 9.984 10.967 10.851 10.562C11.706 10.158 12.143 9.324 12.143 8.066C12.143 7.336 11.87 6.726 11.321 6.238C11.043 5.975 10.708 5.813 10.332 5.752C9.957 5.691 9.383 5.691 8.612 5.752C7.843 5.814 7.314 5.842 7.03 5.842C6.645 5.842 6.23 5.824 5.711 5.783C5.191 5.743 4.783 5.718 4.488 5.705C4.194 5.696 3.879 5.732 3.53 5.813C3.185 5.895 2.901 6.037 2.677 6.238C2.156 6.707 1.887 7.315 1.887 8.066C1.887 9.324 2.313 10.158 3.167 10.562C4.017 10.967 5.28 11.169 6.969 11.169H7.03ZM4.596 6.908C4.864 6.908 5.088 7.041 5.281 7.304C5.473 7.569 5.575 7.892 5.575 8.279C5.575 8.664 5.473 8.99 5.281 9.252C5.089 9.517 4.864 9.648 4.596 9.648C4.317 9.648 4.074 9.517 3.88 9.252C3.688 8.99 3.586 8.664 3.586 8.279C3.586 7.892 3.688 7.569 3.88 7.304C4.073 7.04 4.316 6.908 4.596 6.908Z" fill="black"/>
</svg>
