<svg width="28" height="16" viewBox="0 0 28 16" fill="none" xmlns="http://www.w3.org/2000/svg">
<path d="M0.658569 2.76417C0.658569 1.32433 1.86808 0.146286 3.34637 0.146286H24.8488C25.5617 0.146286 26.2453 0.422098 26.7494 0.913047C27.2534 1.404 27.5366 2.06987 27.5366 2.76417V13.2357C27.5366 13.93 27.2534 14.5959 26.7494 15.0868C26.2453 15.5778 25.5617 15.8536 24.8488 15.8536H3.34637C2.63352 15.8536 1.94987 15.5778 1.44581 15.0868C0.941748 14.5959 0.658569 13.93 0.658569 13.2357V2.76417ZM3.34637 2.76417V5.38206H6.03418V2.76417H3.34637ZM4.69028 6.691V9.30889H7.37808V6.691H4.69028ZM3.34637 10.6178V13.2357H6.03418V10.6178H3.34637ZM7.37808 10.6178V13.2357H20.8171V10.6178H7.37808ZM22.161 10.6178V13.2357H24.8488V10.6178H22.161ZM8.72198 6.691V9.30889H11.4098V6.691H8.72198ZM12.7537 6.691V9.30889H15.4415V6.691H12.7537ZM16.7854 6.691V9.30889H19.4732V6.691H16.7854ZM20.8171 6.691V9.30889H23.5049V6.691H20.8171ZM7.37808 2.76417V5.38206H10.0659V2.76417H7.37808ZM11.4098 2.76417V5.38206H14.0976V2.76417H11.4098ZM15.4415 2.76417V5.38206H18.1293V2.76417H15.4415ZM19.4732 2.76417V5.38206H24.8488V2.76417H19.4732Z" fill="white"/>
</svg>
