<svg width="11" height="16" viewBox="0 0 11 16" fill="none" xmlns="http://www.w3.org/2000/svg">
<path d="M5.51472 0C3.01971 0 1.40368 1.02197 0.134935 2.84456C-0.0952201 3.17519 -0.0242636 3.6285 0.296791 3.87188L1.64521 4.89403C1.96946 5.13981 2.4308 5.08234 2.68465 4.76441C3.46764 3.78375 4.04845 3.21913 5.2715 3.21913C6.23313 3.21913 7.42257 3.83784 7.42257 4.77009C7.42257 5.47484 6.84064 5.83678 5.89113 6.36897C4.78387 6.98959 3.3186 7.76197 3.3186 9.69413V10C3.3186 10.4142 3.65447 10.75 4.0688 10.75H6.33413C6.74846 10.75 7.08433 10.4142 7.08433 10V9.81959C7.08433 8.48022 11 8.42444 11 4.8C11 2.0705 8.16796 0 5.51472 0ZM5.20148 11.6706C4.00753 11.6706 3.03618 12.6417 3.03618 13.8353C3.03618 15.0289 4.00753 16 5.20148 16C6.39542 16 7.36678 15.0289 7.36678 13.8353C7.36678 12.6417 6.39542 11.6706 5.20148 11.6706Z" fill="white"/>
</svg>
