<svg width="384" height="385" viewBox="0 0 384 385" fill="none" xmlns="http://www.w3.org/2000/svg">
<path d="M381 322.7L296.2 236.8C310 212.7 317.2 185.9 317.2 158.9C317.2 71.3 246 0 158.6 0C71.2 0 0 71.3 0 158.9C0 246.5 71.2 317.8 158.6 317.8C186.5 317.8 214.1 310.1 238.7 295.4L323.1 381C325 382.9 327.7 384.1 330.4 384.1C333.1 384.1 335.8 383 337.7 381L381 337.2C385 333.1 385 326.7 381 322.7ZM158.6 61.9C212 61.9 255.4 105.4 255.4 158.9C255.4 212.4 212 255.9 158.6 255.9C105.2 255.9 61.8 212.4 61.8 158.9C61.8 105.4 105.2 61.9 158.6 61.9Z" fill="black"/>
</svg>
