<svg width="41" height="41" viewBox="0 0 41 41" fill="none" xmlns="http://www.w3.org/2000/svg">
<path d="M4.79609 7.32285C6.72027 5.02971 9.12331 3.18579 11.8363 1.92069C14.5494 0.655587 17.5065 -7.49399e-07 20.5 0C23.4935 7.49401e-07 26.4507 0.65559 29.1637 1.92069C31.8767 3.1858 34.2797 5.02971 36.2039 7.32286L28.576 13.7234C27.5865 12.5441 26.3507 11.5959 24.9555 10.9453C23.5602 10.2946 22.0395 9.9575 20.5 9.9575C18.9605 9.9575 17.4398 10.2946 16.0445 10.9452C14.6493 11.5959 13.4135 12.5441 12.424 13.7234L4.79609 7.32285Z" fill="#42455C"/>
<path d="M39.7637 13.4886C40.7875 16.3015 41.1829 19.3046 40.922 22.2867C40.6611 25.2688 39.7503 28.1576 38.2535 30.75C36.7568 33.3424 34.7104 35.5756 32.2583 37.2926C29.8062 39.0096 27.0078 40.1687 24.0598 40.6886L22.3307 30.8823C23.8468 30.615 25.2859 30.0189 26.5469 29.1359C27.808 28.2529 28.8603 27.1045 29.6301 25.7713C30.3998 24.438 30.8682 22.9524 31.0024 21.4188C31.1366 19.8852 30.9332 18.3409 30.4067 16.8943L39.7637 13.4886Z" fill="#42455C"/>
<path d="M16.9402 40.6886C13.9922 40.1687 11.1938 39.0096 8.74168 37.2926C6.28956 35.5756 4.24322 33.3424 2.74648 30.75C1.24974 28.1576 0.338909 25.2688 0.078009 22.2867C-0.182891 19.3046 0.212468 16.3015 1.2363 13.4886L10.5933 16.8943C10.0668 18.3409 9.86345 19.8852 9.99762 21.4188C10.1318 22.9524 10.6002 24.438 11.3699 25.7713C12.1397 27.1045 13.192 28.2529 14.4531 29.1359C15.7141 30.0189 17.1532 30.615 18.6693 30.8823L16.9402 40.6886Z" fill="#42455C"/>
</svg>
